<svg width="614" height="631" viewBox="0 0 614 631" fill="none" xmlns="http://www.w3.org/2000/svg">
<path opacity="0.1" d="M495.805 628.485C495.805 628.939 495.806 629.545 495.995 630M192.135 70.7038H287.478C259.056 47.065 229.502 23.7295 198.818 1L192.135 70.7038ZM192.135 70.7038H86.2599H192.135ZM192.135 70.7038C222.633 93.4333 252 116.769 280.05 140.408L192.135 70.7038ZM92.7499 1C126.821 23.4264 160.133 46.762 192.321 70.7038L92.7499 1ZM86.2599 70.7038C58.7205 52.6948 30.5534 35.1875 2.00011 18.3061L86.2599 70.7038ZM86.2599 70.7038H2.00011H86.2599ZM365.99 140.408C341.136 116.92 314.969 93.5844 287.485 70.7038L365.99 140.408ZM365.99 140.408C390.279 163.44 413.251 186.776 434.719 210.111L365.99 140.408ZM365.99 140.408H280.05H365.99ZM280.05 140.408C307.155 163.288 332.949 186.624 357.24 210.111L280.05 140.408ZM86.0737 70.7038C120.324 93.1299 153.643 116.466 185.645 140.408H79.9561L86.0737 70.7038ZM80.1424 140.408C114.586 162.834 147.905 186.169 179.713 210.111L80.1424 140.408ZM80.1424 140.408C54.6927 123.829 28.374 107.741 2.00011 92.2374L80.1424 140.408ZM80.1424 140.408H2.00011H80.1424ZM434.719 210.111H357.24H434.719ZM434.719 210.111C455.999 233.295 475.775 256.48 493.67 279.815H423.901L434.719 210.111ZM357.24 210.111C332.949 186.624 307.155 163.288 280.05 140.408H185.831C216.136 163.137 245.317 186.472 272.987 210.111H357.24ZM357.24 210.111C381.152 233.144 403.373 256.48 423.901 279.815L357.24 210.111ZM179.713 210.111H74.5903H179.713ZM179.713 210.111H272.801C299.534 232.992 324.763 256.328 348.302 279.815H265.746L179.713 210.111ZM179.713 210.111C210.018 232.84 238.82 256.176 265.932 279.815H174.161L179.713 210.111ZM74.5903 210.111C109.22 232.538 142.539 255.873 174.161 279.815H69.6038L74.5903 210.111ZM74.5903 210.111C51.0373 194.845 26.5463 179.995 2.00011 165.634L74.5903 210.111ZM74.5903 210.111H2.00011H74.5903ZM423.901 279.815H348.49H423.901ZM423.901 279.815C444.428 302.999 463.076 326.334 480.03 349.518H542.277C556.599 372.854 569.229 396.19 579.414 419.222L423.901 279.815ZM174.161 279.815H69.5969H174.161ZM174.161 279.815C204.28 302.544 232.702 325.88 259.249 349.518L174.161 279.815ZM69.5969 279.815C47.6854 265.663 24.8634 251.916 2.00011 238.628L69.5969 279.815ZM69.5969 279.815H2.00011H69.5969ZM493.482 279.815C511.565 303.15 527.768 326.334 542.09 349.518H479.841L493.482 279.815ZM348.489 279.815C371.649 302.848 393.117 326.183 412.705 349.518L348.489 279.815ZM479.841 349.518H412.705H479.841ZM479.841 349.518C496.609 372.854 511.495 396.19 523.936 419.222H579.225L479.841 349.518ZM412.705 349.518C432.104 372.702 449.624 396.038 464.886 419.222L412.705 349.518ZM265.932 279.815C292.292 302.696 316.955 326.032 339.55 349.518H412.518L265.932 279.815ZM259.249 349.518H169.168H259.249ZM259.249 349.518H339.736C362.147 372.702 382.486 395.886 400.758 419.222H330.611L259.249 349.518ZM259.249 349.518C285.043 372.551 308.769 395.735 330.425 419.222L259.249 349.518ZM69.7901 279.815C104.42 302.241 137.925 325.577 169.361 349.518H65.7416C45.0577 336.358 23.5392 323.503 2.00011 311.069L69.7901 279.815ZM65.5484 349.518C100.371 371.793 133.683 395.28 164.747 419.222L65.5484 349.518ZM65.5484 349.518H169.168C198.914 372.248 226.964 395.584 252.566 419.222L65.5484 349.518ZM65.5484 349.518H2.00011H65.5484ZM524.124 419.222H464.886H524.124ZM524.124 419.222H579.413C589.974 442.709 598.09 466.045 603.761 488.926L524.124 419.222ZM524.124 419.222C536.942 442.709 547.502 466.045 555.618 488.926L524.124 419.222ZM464.886 419.222C480.148 442.558 493.341 465.893 503.901 488.926L464.886 419.222ZM464.886 419.222H400.57H464.886ZM464.698 419.222H400.382H464.698ZM330.425 419.222H252.566H330.425ZM330.425 419.222H400.57H330.425ZM330.425 419.222C351.705 442.406 370.916 465.742 387.495 488.926L330.425 419.222ZM252.566 419.222H164.747H252.566ZM252.566 419.222C277.608 442.255 300.396 465.59 320.549 488.926L252.566 419.222ZM164.747 419.222H62.4448H164.747ZM164.747 419.222C194.114 441.952 221.412 465.288 246.076 488.926L164.747 419.222ZM62.4448 419.222C97.4467 441.497 130.58 464.984 161.071 488.926L62.4448 419.222ZM62.4448 419.222C43.1472 406.931 22.2702 394.977 2.00011 383.397L62.4448 419.222ZM62.4448 419.222H2.00011H62.4448ZM603.761 488.926H555.618H603.761ZM603.761 488.926C609.62 512.565 612.847 535.9 613.065 558.629L603.761 488.926ZM555.618 488.926C563.923 512.565 569.594 535.9 572.255 558.629L555.618 488.926ZM555.618 488.926H504.09H555.618ZM400.57 419.222C418.842 442.558 434.668 465.893 448.238 488.926H387.495L400.57 419.222ZM387.495 488.926H320.549H387.495ZM320.549 488.926H246.076H320.549ZM246.076 488.926H161.071H246.076ZM246.076 488.926C270.173 511.958 291.644 535.294 309.913 558.629H239.392L246.076 488.926ZM161.071 488.926H60.6516H161.071ZM161.071 488.926C189.872 511.656 216.233 534.991 239.392 558.629H158.154L161.071 488.926ZM60.6516 488.926C95.6604 511.201 128.6 534.536 158.154 558.629L60.6516 488.926ZM60.6516 488.926C42.0161 477.098 21.7253 465.58 2.00011 454.452L60.6516 488.926ZM60.6516 488.926H2.00011H60.6516ZM613.065 558.629C613.065 559.539 613.067 560.296 613.067 561.205C613.096 583.935 611.808 606.21 609.391 628.333L613.065 558.629ZM613.065 558.629H572.255H613.065ZM572.255 558.629H528.438H572.255ZM572.255 558.629C574.845 581.736 574.565 605.161 573.096 628.333L572.255 558.629ZM528.25 558.629H480.859H528.25ZM528.438 558.629C523.143 535.749 515.027 512.413 504.09 488.925H448.237C461.807 512.413 472.744 535.749 480.859 558.629H528.438ZM528.438 558.629H480.859H528.438ZM528.438 558.629C533.722 581.494 535.886 604.889 535.297 628.333L528.438 558.629ZM480.859 558.629C489.164 582.268 494.271 605.603 495.616 628.333L480.859 558.629ZM387.494 488.925C404.072 512.261 418.207 535.597 429.143 558.629L387.494 488.925ZM320.549 488.925C340.508 512.11 358.029 535.445 372.539 558.629L320.549 488.925ZM372.539 558.629H429.145H372.539ZM372.539 558.629C387.238 582.117 398.738 605.452 406.666 628.333L372.539 558.629ZM372.539 558.629H341.226H309.913C328.19 581.965 343.446 605.301 355.138 628.333L372.539 558.629ZM239.392 558.629H158.154H239.392ZM239.392 558.629C261.987 581.662 281.767 604.997 297.589 628.333L239.392 558.629ZM158.154 558.629H60.5551C95.557 580.904 127.745 604.391 155.988 628.333L158.154 558.629ZM158.154 558.629C186.203 581.359 211.246 604.846 232.337 628.333L158.154 558.629ZM158.154 558.629H60.5482H158.154ZM60.5482 558.629C41.9885 546.829 21.9391 535.367 2.00011 524.322L60.5482 558.629ZM60.5482 558.629H2.00011H60.5482ZM480.861 558.629H429.145H480.861ZM495.806 628.333C495.994 628.788 495.995 629.394 495.995 629.848L495.806 628.333ZM453.305 628.333C448.762 605.452 440.458 582.268 429.145 558.629L453.305 628.333ZM62.7069 628.333C43.6645 616.156 22.8771 604.37 2.00011 593.061L62.7069 628.333Z" stroke="#F0FDFA" stroke-miterlimit="10"/>
</svg>
